<svg width="20" height="21" viewBox="0 0 20 21" fill="none" xmlns="http://www.w3.org/2000/svg">
<path d="M15.8718 10.9499C15.9962 11.0501 16.0719 11.1727 16.0988 11.3175C16.1258 11.4623 16.0779 11.5981 15.9552 11.725L12.1211 16.484C11.6199 17.1061 11.0356 17.5895 10.3681 17.934C9.70072 18.2786 8.98889 18.4745 8.23265 18.5218C7.47642 18.5691 6.74559 18.483 6.04018 18.2635C5.33477 18.044 4.66739 17.6499 4.03803 17.0813C3.49577 16.5829 3.08727 16.0076 2.81254 15.3554C2.5378 14.7032 2.37418 14.0276 2.32169 13.3288C2.26919 12.6299 2.36013 11.944 2.59451 11.2711C2.82888 10.5982 3.16417 9.96552 3.60039 9.37314L8.472 3.32632C9.26389 2.3434 10.1019 1.73618 10.986 1.50467C11.8702 1.27315 12.672 1.38569 13.3916 1.84231C13.8174 2.10328 14.1656 2.4351 14.4362 2.83777C14.7068 3.24045 14.8725 3.67145 14.9333 4.13079C14.9941 4.59014 14.9813 5.05172 14.8948 5.51555C14.8084 5.97937 14.5924 6.40034 14.2467 6.77843L9.01424 13.2732C8.91401 13.3976 8.79649 13.467 8.66169 13.4816C8.5269 13.4961 8.38606 13.4544 8.23917 13.3566L7.36201 12.6499C7.25003 12.5597 7.18558 12.4359 7.16865 12.2787C7.15172 12.1214 7.18837 11.9868 7.27858 11.8748L12.466 5.43609C12.6364 5.22457 12.7345 4.97538 12.7605 4.68851C12.7864 4.40164 12.6974 4.15555 12.4935 3.95024C12.2499 3.69238 11.9583 3.57036 11.6189 3.58417C11.2795 3.59797 11.0046 3.73552 10.7941 3.9968L5.29094 10.8275C5.0203 11.1634 4.82068 11.5258 4.69208 11.9146C4.56348 12.3034 4.5035 12.6962 4.51211 13.093C4.52073 13.4898 4.59174 13.8855 4.72513 14.2802C4.85852 14.675 5.07693 15.0151 5.38038 15.3006C5.73842 15.6711 6.14798 15.9395 6.60903 16.1058C7.07009 16.2721 7.52148 16.3485 7.96319 16.335C8.4049 16.3216 8.85319 16.2108 9.30804 16.0028C9.7629 15.7947 10.1282 15.4941 10.4041 15.1007L14.2382 10.3417C14.3385 10.2173 14.4672 10.1466 14.6245 10.1297C14.7817 10.1127 14.9113 10.1556 15.0133 10.2582L15.8718 10.9499Z" fill="white"/>
</svg>
