<svg width="43" height="43" viewBox="0 0 43 43" fill="none" xmlns="http://www.w3.org/2000/svg">
<rect width="43" height="43" fill="#EC5C2B"/>
<path d="M21 16.1333C23.0059 16.1268 24.973 16.6739 26.675 17.7117C28.3771 18.7495 29.7451 20.2359 30.6218 22C28.8218 25.5947 25.1455 27.8667 21 27.8667C16.8545 27.8667 13.1782 25.5947 11.3782 22C12.2549 20.2359 13.6229 18.7495 15.325 17.7117C17.027 16.6739 18.9941 16.1268 21 16.1333ZM21 14C15.5455 14 10.8873 17.3173 9 22C10.8873 26.6827 15.5455 30 21 30C26.4545 30 31.1127 26.6827 33 22C31.1127 17.3173 26.4545 14 21 14ZM21 19.3333C21.7233 19.3333 22.417 19.6143 22.9285 20.1144C23.4399 20.6145 23.7273 21.2928 23.7273 22C23.7273 22.7072 23.4399 23.3855 22.9285 23.8856C22.417 24.3857 21.7233 24.6667 21 24.6667C20.2767 24.6667 19.583 24.3857 19.0715 23.8856C18.5601 23.3855 18.2727 22.7072 18.2727 22C18.2727 21.2928 18.5601 20.6145 19.0715 20.1144C19.583 19.6143 20.2767 19.3333 21 19.3333ZM21 17.2C18.2945 17.2 16.0909 19.3547 16.0909 22C16.0909 24.6453 18.2945 26.8 21 26.8C23.7055 26.8 25.9091 24.6453 25.9091 22C25.9091 19.3547 23.7055 17.2 21 17.2Z" fill="#F2F2F2"/>
</svg>
