<svg width="40" height="40" viewBox="0 0 40 40" fill="none" xmlns="http://www.w3.org/2000/svg">
<circle opacity="0.2" cx="20" cy="20" r="19.5" stroke="#828282"/>
<path d="M15.7835 14.1668C15.7833 14.6088 15.6075 15.0326 15.2948 15.345C14.9821 15.6574 14.5581 15.8328 14.116 15.8326C13.674 15.8324 13.2502 15.6566 12.9378 15.3439C12.6254 15.0311 12.45 14.6071 12.4502 14.1651C12.4504 13.7231 12.6262 13.2992 12.9389 12.9868C13.2517 12.6744 13.6757 12.499 14.1177 12.4993C14.5597 12.4995 14.9836 12.6753 15.296 12.988C15.6084 13.3007 15.7838 13.7247 15.7835 14.1668ZM15.8335 17.0668H12.5002V27.5001H15.8335V17.0668ZM21.1002 17.0668H17.7835V27.5001H21.0669V22.0251C21.0669 18.9751 25.0419 18.6918 25.0419 22.0251V27.5001H28.3335V20.8918C28.3335 15.7501 22.4502 15.9418 21.0669 18.4668L21.1002 17.0668Z" fill="#1B1B1E"/>
</svg>
