<svg width="164" height="29" viewBox="0 0 164 29" fill="none" xmlns="http://www.w3.org/2000/svg">
<g clip-path="url(#clip0)">
<path d="M17.4523 20.2615H12.136V8.6665C12.136 7.23372 11.9 6.15913 11.4281 5.44273C10.9561 4.72634 10.2154 4.36814 9.20587 4.36814C7.84831 4.36814 6.86067 4.8776 6.24293 5.89651C5.6252 6.91542 5.31724 8.58577 5.31907 10.9076V20.2615H0V0.409424H4.06173L4.77787 2.94835H5.07307C5.60836 2.02487 6.39688 1.28078 7.34173 0.807523C8.39728 0.277107 9.56247 0.0126428 10.7393 0.03638C13.6548 0.03638 15.631 1.00704 16.6679 2.94835H17.138C17.6778 2.01038 18.484 1.26106 19.4504 0.799171C20.5251 0.277125 21.7039 0.0160214 22.8944 0.03638C25.1029 0.03638 26.773 0.613577 27.9046 1.76797C29.0362 2.92237 29.6029 4.77181 29.6047 7.31631V20.2615H24.2693V8.6665C24.2693 7.23372 24.0342 6.15913 23.5641 5.44273C23.0939 4.72634 22.3532 4.36814 21.3419 4.36814C20.039 4.36814 19.065 4.84234 18.4199 5.79072C17.7749 6.73911 17.4523 8.24242 17.4523 10.3007V20.2615Z" fill="#EB5D2A"/>
<path d="M47.4424 20.2613L46.4146 17.5637H46.2752C45.3787 18.7107 44.4576 19.5069 43.5118 19.9523C42.5661 20.3978 41.3306 20.6195 39.8054 20.6177C37.934 20.6177 36.4607 20.073 35.3856 18.9835C34.3105 17.8941 33.7729 16.3435 33.7729 14.3316C33.7729 12.2251 34.4964 10.6708 35.9432 9.66856C37.3901 8.66635 39.5722 8.10957 42.4896 7.99822L45.8734 7.89243V7.0322C45.8734 5.02036 44.8621 4.01444 42.8394 4.01444C41.2814 4.01444 39.451 4.49327 37.3482 5.45094L35.5852 1.79288C37.8921 0.58266 40.4552 -0.0329289 43.0499 3.69126e-05C45.663 3.69126e-05 47.6674 0.580019 49.0632 1.73998C50.4591 2.89995 51.157 4.66309 51.157 7.02941V20.2613H47.4424ZM45.8734 11.0744L43.8152 11.1357C42.27 11.1839 41.1192 11.4679 40.363 11.9876C39.6068 12.5072 39.2296 13.3006 39.2314 14.3678C39.2314 15.8934 40.0915 16.6562 41.8117 16.6562C43.0417 16.6562 44.0266 16.2952 44.7664 15.5732C45.1382 15.1994 45.4288 14.7503 45.6195 14.255C45.8102 13.7596 45.8967 13.229 45.8734 12.6975V11.0744Z" fill="#EB5D2A"/>
<path d="M73.595 0.409177V3.15968L70.5446 3.95866C71.1028 4.84928 71.3934 5.88651 71.381 6.94302C71.381 9.07549 70.6521 10.7356 69.1943 11.9234C67.7366 13.1112 65.7112 13.707 63.1181 13.7107L62.1587 13.655L61.3743 13.5659C60.8276 13.9947 60.5543 14.4689 60.5543 14.9885C60.5543 15.768 61.531 16.1587 63.4844 16.1605H66.7972C68.9347 16.1605 70.5646 16.6245 71.6871 17.5525C72.8096 18.4805 73.37 19.8539 73.3681 21.6727C73.4046 22.7501 73.1603 23.8182 72.66 24.7683C72.1597 25.7184 71.4214 26.5166 70.52 27.0818C68.6194 28.3606 65.8916 28.9999 62.3364 28.9999C59.614 28.9999 57.5358 28.5174 56.1017 27.5523C55.4236 27.1287 54.8674 26.5303 54.4892 25.8176C54.111 25.1049 53.9243 24.3032 53.9478 23.4934C53.9141 22.3861 54.3064 21.3092 55.0411 20.4923C55.77 19.6887 56.8451 19.1143 58.2665 18.7691C57.7047 18.5133 57.2177 18.1132 56.8533 17.6082C56.4485 17.0934 56.2308 16.4518 56.2373 15.7922C56.2438 15.1326 56.474 14.4956 56.8889 13.9891C57.4264 13.4047 58.052 12.9113 58.7421 12.5275C57.7265 12.0861 56.8747 11.3277 56.3094 10.3617C55.6922 9.29857 55.3806 8.08026 55.4101 6.84558C55.4101 4.6797 56.1017 3.00935 57.4847 1.83454C58.8678 0.659729 60.844 0.06026 63.4133 0.0361328C64.0636 0.0438711 64.7128 0.0940846 65.3567 0.186464C66.1084 0.286685 66.5867 0.36185 66.7972 0.409177H73.595ZM58.548 23.0674C58.5466 23.4314 58.6446 23.7887 58.8309 24.0993C59.0171 24.41 59.2845 24.6619 59.6031 24.8269C60.3083 25.2519 61.2941 25.4644 62.5605 25.4644C64.4648 25.4644 65.9581 25.198 67.0405 24.6654C68.1229 24.1327 68.6632 23.4052 68.6613 22.4828C68.6836 22.1548 68.6026 21.8281 68.4301 21.5502C68.2575 21.2724 68.0025 21.0578 67.7019 20.9377C67.0623 20.6538 66.0747 20.5118 64.739 20.5118H61.9838C61.1119 20.4777 60.2515 20.723 59.5238 21.2133C59.2199 21.4125 58.9708 21.6872 58.8001 22.0116C58.6293 22.336 58.5426 22.6994 58.548 23.0674ZM60.4832 6.92074C60.4832 7.99812 60.7265 8.85278 61.2075 9.47916C61.6886 10.1055 62.4266 10.4201 63.4133 10.4201C64.4001 10.4201 65.1463 10.1055 65.6 9.47916C66.0537 8.85278 66.297 7.99812 66.297 6.92074C66.297 4.53029 65.3321 3.33507 63.4024 3.33507C61.4727 3.33507 60.4996 4.52565 60.4832 6.90683V6.92074Z" fill="#EB5D2A"/>
<path d="M85.6272 20.6176C82.4893 20.6176 80.0366 19.7351 78.269 17.9701C76.5015 16.2051 75.6177 13.7079 75.6177 10.4786C75.6177 7.15274 76.4377 4.58041 78.0777 2.76158C79.7177 0.942763 81.9727 0.0342797 84.8427 0.0361357C87.5979 0.0361357 89.7427 0.835118 91.277 2.43308C92.8113 4.03105 93.5784 6.23869 93.5784 9.05601V11.6924H81.0051C81.0652 13.2319 81.5108 14.4345 82.3499 15.3115C83.189 16.1884 84.3589 16.6088 85.8704 16.6088C86.9905 16.6146 88.1076 16.4894 89.1996 16.2357C90.3306 15.9567 91.4299 15.5583 92.4796 15.047V19.2089C91.5335 19.6885 90.5315 20.0439 89.4976 20.2668C88.2226 20.5183 86.9257 20.6358 85.6272 20.6176ZM84.8782 3.89742C83.7503 3.89742 82.8665 4.26119 82.2269 4.98871C81.5873 5.71624 81.2228 6.74907 81.1336 8.08721H88.5956C88.5737 6.75093 88.2311 5.7181 87.5678 4.98871C87.2223 4.62141 86.8034 4.33392 86.3394 4.14565C85.8754 3.95739 85.3771 3.87274 84.8782 3.89742Z" fill="#EB5D2A"/>
<path d="M105.818 20.6179C103.05 20.6179 100.908 19.7502 99.3923 18.0149C97.8762 16.2796 97.1182 13.8261 97.1182 10.6543C97.1182 7.39894 97.8881 4.88321 99.4278 3.10707C100.968 1.33094 103.162 0.442871 106.01 0.442871C106.936 0.44467 107.86 0.546386 108.765 0.746317C109.512 0.889436 110.238 1.12795 110.927 1.45621L110.036 3.96173C109.357 3.68972 108.658 3.47374 107.945 3.31587C107.287 3.1556 106.615 3.06879 105.939 3.05696C102.057 3.05696 100.117 5.57919 100.117 10.6236C100.117 13.0159 100.59 14.8505 101.538 16.1274C102.486 17.4043 103.889 18.0437 105.747 18.0455C107.432 18.0266 109.098 17.671 110.648 16.9988V19.6073C109.369 20.2829 107.759 20.6197 105.818 20.6179Z" fill="#EB5D2A"/>
<path d="M131.676 10.5121C131.676 13.6857 130.89 16.1634 129.32 17.9451C127.749 19.7268 125.581 20.6177 122.817 20.6177C121.218 20.647 119.642 20.2229 118.266 19.3928C116.923 18.5532 115.855 17.3266 115.197 15.8683C114.445 14.1856 114.076 12.3519 114.117 10.5037C114.117 7.33379 114.896 4.8626 116.454 3.09018C118.012 1.31776 120.174 0.432473 122.94 0.434329C125.613 0.434329 127.737 1.34003 129.311 3.15143C130.886 4.96282 131.674 7.41638 131.676 10.5121ZM117.115 10.5121C117.115 12.999 117.604 14.894 118.58 16.1968C119.557 17.4997 120.993 18.1493 122.888 18.1456C124.783 18.1456 126.221 17.496 127.201 16.1968C128.182 14.8977 128.673 13 128.675 10.5037C128.675 8.03162 128.183 6.15248 127.201 4.86632C126.219 3.58015 124.77 2.93799 122.853 2.93985C120.957 2.93985 119.528 3.57272 118.564 4.83848C117.6 6.10423 117.117 7.99543 117.115 10.5121Z" fill="#EB5D2A"/>
<path d="M161.106 20.2613V7.60007C161.106 6.05036 160.781 4.88761 160.13 4.11183C159.479 3.33605 158.468 2.94816 157.096 2.94816C155.296 2.94816 153.964 3.47524 153.103 4.52942C152.241 5.58359 151.811 7.20476 151.812 9.39291V20.2502H148.918V7.60007C148.918 6.05036 148.593 4.88761 147.942 4.11183C147.291 3.33605 146.275 2.94816 144.892 2.94816C143.069 2.94816 141.741 3.50494 140.906 4.6185C140.072 5.73207 139.651 7.54254 139.644 10.0499V20.2613H136.749V0.798976H139.102L139.573 3.46318H139.712C140.258 2.51241 141.06 1.73989 142.022 1.23605C143.053 0.692537 144.201 0.417114 145.362 0.434284C148.35 0.434284 150.303 1.53578 151.219 3.73879H151.359C151.941 2.70929 152.8 1.87086 153.835 1.32235C154.975 0.716893 156.245 0.411595 157.531 0.434284C159.692 0.434284 161.311 1.00035 162.388 2.13247C163.465 3.26459 164.002 5.07506 164 7.56388V20.2613H161.106Z" fill="#EB5D2A"/>
</g>
<defs>
<clipPath id="clip0">
<rect width="164" height="29" fill="white"/>
</clipPath>
</defs>
</svg>
