<svg width="278" height="278" viewBox="0 0 366 366" fill="none" xmlns="http://www.w3.org/2000/svg">
<path d="M157.403 12.2535C170.486 -4.23203 195.514 -4.23204 208.597 12.2535C217.546 23.5288 232.818 27.621 246.205 22.3305C265.779 14.5953 287.453 27.1093 290.541 47.9279C292.653 62.1668 303.833 73.3469 318.072 75.4588C338.891 78.5466 351.405 100.221 343.669 119.795C338.379 133.182 342.471 148.454 353.746 157.403C370.232 170.486 370.232 195.514 353.746 208.597C342.471 217.546 338.379 232.818 343.669 246.205C351.405 265.779 338.891 287.453 318.072 290.541C303.833 292.653 292.653 303.833 290.541 318.072C287.453 338.891 265.779 351.405 246.205 343.669C232.818 338.379 217.546 342.471 208.597 353.746C195.514 370.232 170.486 370.232 157.403 353.746C148.454 342.471 133.182 338.379 119.795 343.669C100.221 351.405 78.5466 338.891 75.4588 318.072C73.3469 303.833 62.1668 292.653 47.9279 290.541C27.1093 287.453 14.5953 265.779 22.3305 246.205C27.621 232.818 23.5288 217.546 12.2535 208.597C-4.23204 195.514 -4.23204 170.486 12.2535 157.403C23.5288 148.454 27.621 133.182 22.3305 119.795C14.5953 100.221 27.1093 78.5466 47.9279 75.4588C62.1668 73.3469 73.3469 62.1668 75.4588 47.9279C78.5466 27.1093 100.221 14.5953 119.795 22.3305C133.182 27.621 148.454 23.5288 157.403 12.2535Z" fill="#EC5C2B"/>
</svg>
